<mxfile host="app.diagrams.net" agent="Mozilla/5.0 (Windows NT 10.0; Win64; x64) AppleWebKit/537.36 (KHTML, like Gecko) Chrome/138.0.0.0 Safari/537.36 Edg/138.0.0.0" version="28.0.4">
  <diagram id="gJknrULxorPkjva1byL3" name="Page-1">
    <mxGraphModel dx="3217" dy="960" grid="1" gridSize="10" guides="1" tooltips="1" connect="1" arrows="1" fold="1" page="1" pageScale="1" pageWidth="827" pageHeight="1169" math="0" shadow="0">
      <root>
        <mxCell id="0" />
        <mxCell id="1" parent="0" />
        <mxCell id="cwwTzG9_eAxzKP_ijVsS-1" value="托管机房" style="rounded=0;whiteSpace=wrap;html=1;fillColor=#fff2cc;strokeColor=#d6b656;labelPosition=center;verticalLabelPosition=bottom;align=center;verticalAlign=top;" parent="1" vertex="1">
          <mxGeometry x="-880" y="1440" width="990" height="570" as="geometry" />
        </mxCell>
        <mxCell id="9fjLhJYOVXO7N2OmlXDZ-1" value="阿里云vpc" style="rounded=0;whiteSpace=wrap;html=1;fillColor=#ffe6cc;strokeColor=#d79b00;labelPosition=center;verticalLabelPosition=bottom;align=center;verticalAlign=top;" parent="1" vertex="1">
          <mxGeometry x="-320" y="330" width="990" height="940" as="geometry" />
        </mxCell>
        <mxCell id="9fjLhJYOVXO7N2OmlXDZ-22" value="" style="edgeStyle=orthogonalEdgeStyle;rounded=0;orthogonalLoop=1;jettySize=auto;html=1;fillColor=#ffe6cc;strokeColor=#d79b00;" parent="1" source="zSoFTdJwqtHDQYcGsr4z-6" target="9fjLhJYOVXO7N2OmlXDZ-3" edge="1">
          <mxGeometry relative="1" as="geometry">
            <mxPoint x="340" y="899.9999999999998" as="sourcePoint" />
            <Array as="points">
              <mxPoint x="-40" y="1818" />
              <mxPoint x="-40" y="805" />
            </Array>
          </mxGeometry>
        </mxCell>
        <mxCell id="9fjLhJYOVXO7N2OmlXDZ-23" value="数据同步" style="edgeLabel;html=1;align=center;verticalAlign=middle;resizable=0;points=[];" parent="9fjLhJYOVXO7N2OmlXDZ-22" vertex="1" connectable="0">
          <mxGeometry x="0.1818" y="-2" relative="1" as="geometry">
            <mxPoint as="offset" />
          </mxGeometry>
        </mxCell>
        <mxCell id="9fjLhJYOVXO7N2OmlXDZ-32" value="" style="edgeStyle=orthogonalEdgeStyle;rounded=0;orthogonalLoop=1;jettySize=auto;html=1;" parent="1" source="9fjLhJYOVXO7N2OmlXDZ-3" target="9fjLhJYOVXO7N2OmlXDZ-5" edge="1">
          <mxGeometry relative="1" as="geometry" />
        </mxCell>
        <mxCell id="9fjLhJYOVXO7N2OmlXDZ-34" value="" style="edgeStyle=orthogonalEdgeStyle;rounded=0;orthogonalLoop=1;jettySize=auto;html=1;" parent="1" source="9fjLhJYOVXO7N2OmlXDZ-3" target="9fjLhJYOVXO7N2OmlXDZ-31" edge="1">
          <mxGeometry relative="1" as="geometry" />
        </mxCell>
        <mxCell id="9fjLhJYOVXO7N2OmlXDZ-3" value="业务数仓199&lt;br&gt;10.220.20.199" style="strokeWidth=2;html=1;shape=mxgraph.flowchart.database;whiteSpace=wrap;" parent="1" vertex="1">
          <mxGeometry x="280" y="770" width="120" height="70" as="geometry" />
        </mxCell>
        <mxCell id="9fjLhJYOVXO7N2OmlXDZ-4" value="项目地环境" style="rounded=0;whiteSpace=wrap;html=1;labelPosition=center;verticalLabelPosition=bottom;align=center;verticalAlign=top;" parent="1" vertex="1">
          <mxGeometry x="860" y="620" width="330" height="390" as="geometry" />
        </mxCell>
        <mxCell id="9fjLhJYOVXO7N2OmlXDZ-5" value="ecs-ocserv-vpn" style="rounded=1;whiteSpace=wrap;html=1;" parent="1" vertex="1">
          <mxGeometry x="510" y="775" width="120" height="60" as="geometry" />
        </mxCell>
        <mxCell id="9fjLhJYOVXO7N2OmlXDZ-33" value="" style="edgeStyle=orthogonalEdgeStyle;rounded=0;orthogonalLoop=1;jettySize=auto;html=1;" parent="1" source="9fjLhJYOVXO7N2OmlXDZ-6" target="9fjLhJYOVXO7N2OmlXDZ-7" edge="1">
          <mxGeometry relative="1" as="geometry" />
        </mxCell>
        <mxCell id="9fjLhJYOVXO7N2OmlXDZ-6" value="项目地ETL&lt;br&gt;（ETL需要访问互联网）" style="rounded=0;whiteSpace=wrap;html=1;" parent="1" vertex="1">
          <mxGeometry x="870" y="775" width="140" height="65" as="geometry" />
        </mxCell>
        <mxCell id="9fjLhJYOVXO7N2OmlXDZ-7" value="项目地数仓" style="strokeWidth=2;html=1;shape=mxgraph.flowchart.database;whiteSpace=wrap;" parent="1" vertex="1">
          <mxGeometry x="1070" y="767.5" width="100" height="80" as="geometry" />
        </mxCell>
        <mxCell id="9fjLhJYOVXO7N2OmlXDZ-11" value="" style="endArrow=classic;html=1;exitX=1;exitY=0.5;exitDx=0;exitDy=0;" parent="1" source="9fjLhJYOVXO7N2OmlXDZ-5" target="9fjLhJYOVXO7N2OmlXDZ-6" edge="1">
          <mxGeometry width="50" height="50" relative="1" as="geometry">
            <mxPoint x="790" y="750" as="sourcePoint" />
            <mxPoint x="840" y="700" as="targetPoint" />
          </mxGeometry>
        </mxCell>
        <mxCell id="9fjLhJYOVXO7N2OmlXDZ-16" value="sslvpn数据同步" style="edgeLabel;html=1;align=center;verticalAlign=middle;resizable=0;points=[];" parent="9fjLhJYOVXO7N2OmlXDZ-11" vertex="1" connectable="0">
          <mxGeometry x="-0.1231" y="-2" relative="1" as="geometry">
            <mxPoint as="offset" />
          </mxGeometry>
        </mxCell>
        <mxCell id="9fjLhJYOVXO7N2OmlXDZ-17" value="阿里爬虫机&lt;br&gt;10.220.1.45" style="rounded=1;whiteSpace=wrap;html=1;" parent="1" vertex="1">
          <mxGeometry x="-250" y="1160" width="120" height="60" as="geometry" />
        </mxCell>
        <mxCell id="9fjLhJYOVXO7N2OmlXDZ-29" value="" style="endArrow=classic;html=1;exitX=0.5;exitY=1;exitDx=0;exitDy=0;" parent="1" source="9fjLhJYOVXO7N2OmlXDZ-17" target="zSoFTdJwqtHDQYcGsr4z-6" edge="1">
          <mxGeometry width="50" height="50" relative="1" as="geometry">
            <mxPoint x="490" y="910" as="sourcePoint" />
            <mxPoint x="540" y="860" as="targetPoint" />
            <Array as="points">
              <mxPoint x="-190" y="1610" />
            </Array>
          </mxGeometry>
        </mxCell>
        <mxCell id="9fjLhJYOVXO7N2OmlXDZ-30" value="数据采集入库" style="edgeLabel;html=1;align=center;verticalAlign=middle;resizable=0;points=[];" parent="9fjLhJYOVXO7N2OmlXDZ-29" vertex="1" connectable="0">
          <mxGeometry x="0.2" y="-5" relative="1" as="geometry">
            <mxPoint as="offset" />
          </mxGeometry>
        </mxCell>
        <mxCell id="9fjLhJYOVXO7N2OmlXDZ-46" value="" style="edgeStyle=orthogonalEdgeStyle;rounded=0;orthogonalLoop=1;jettySize=auto;html=1;" parent="1" source="9fjLhJYOVXO7N2OmlXDZ-31" target="9fjLhJYOVXO7N2OmlXDZ-36" edge="1">
          <mxGeometry relative="1" as="geometry" />
        </mxCell>
        <mxCell id="9fjLhJYOVXO7N2OmlXDZ-31" value="业务库&lt;br&gt;10.220.20.166" style="strokeWidth=2;html=1;shape=mxgraph.flowchart.database;whiteSpace=wrap;" parent="1" vertex="1">
          <mxGeometry x="286" y="650" width="110" height="60" as="geometry" />
        </mxCell>
        <mxCell id="9fjLhJYOVXO7N2OmlXDZ-36" value="一体化平台-web&lt;br&gt;10.220.10.81" style="rounded=1;whiteSpace=wrap;html=1;" parent="1" vertex="1">
          <mxGeometry x="281" y="540" width="120" height="60" as="geometry" />
        </mxCell>
        <mxCell id="9fjLhJYOVXO7N2OmlXDZ-80" value="互联网访问" style="edgeStyle=orthogonalEdgeStyle;rounded=0;orthogonalLoop=1;jettySize=auto;html=1;" parent="1" source="9fjLhJYOVXO7N2OmlXDZ-37" target="9fjLhJYOVXO7N2OmlXDZ-43" edge="1">
          <mxGeometry relative="1" as="geometry">
            <Array as="points">
              <mxPoint x="340" y="240" />
              <mxPoint x="340" y="240" />
            </Array>
          </mxGeometry>
        </mxCell>
        <mxCell id="9fjLhJYOVXO7N2OmlXDZ-37" value="" style="fontColor=#0066CC;verticalAlign=top;verticalLabelPosition=bottom;labelPosition=center;align=center;html=1;outlineConnect=0;fillColor=#CCCCCC;strokeColor=#6881B3;gradientColor=none;gradientDirection=north;strokeWidth=2;shape=mxgraph.networks.monitor;" parent="1" vertex="1">
          <mxGeometry x="300" y="150" width="80" height="65" as="geometry" />
        </mxCell>
        <mxCell id="9fjLhJYOVXO7N2OmlXDZ-41" value="" style="edgeStyle=orthogonalEdgeStyle;rounded=0;orthogonalLoop=1;jettySize=auto;html=1;exitX=0.5;exitY=0;exitDx=0;exitDy=0;exitPerimeter=0;" parent="1" source="9fjLhJYOVXO7N2OmlXDZ-3" target="zf6hU6jJ6Po62-SAqwlD-18" edge="1">
          <mxGeometry relative="1" as="geometry">
            <mxPoint x="80" y="770" as="sourcePoint" />
            <mxPoint x="175" y="710" as="targetPoint" />
          </mxGeometry>
        </mxCell>
        <mxCell id="9fjLhJYOVXO7N2OmlXDZ-43" value="ali-slb" style="rounded=1;whiteSpace=wrap;html=1;" parent="1" vertex="1">
          <mxGeometry x="280" y="300" width="120" height="60" as="geometry" />
        </mxCell>
        <mxCell id="9fjLhJYOVXO7N2OmlXDZ-49" value="" style="endArrow=classic;html=1;exitX=0.5;exitY=0;exitDx=0;exitDy=0;" parent="1" source="9fjLhJYOVXO7N2OmlXDZ-36" target="9fjLhJYOVXO7N2OmlXDZ-43" edge="1">
          <mxGeometry width="50" height="50" relative="1" as="geometry">
            <mxPoint x="230" y="600" as="sourcePoint" />
            <mxPoint x="360" y="470" as="targetPoint" />
          </mxGeometry>
        </mxCell>
        <mxCell id="9fjLhJYOVXO7N2OmlXDZ-59" value="方大内网" style="rounded=0;whiteSpace=wrap;html=1;fillColor=#d5e8d4;strokeColor=#82b366;labelPosition=center;verticalLabelPosition=bottom;align=center;verticalAlign=top;" parent="1" vertex="1">
          <mxGeometry x="-1390" y="329" width="880" height="841" as="geometry" />
        </mxCell>
        <mxCell id="9fjLhJYOVXO7N2OmlXDZ-64" value="" style="endArrow=classic;html=1;entryX=0.011;entryY=0.626;entryDx=0;entryDy=0;entryPerimeter=0;edgeStyle=orthogonalEdgeStyle;exitX=1;exitY=0.75;exitDx=0;exitDy=0;" parent="1" source="9fjLhJYOVXO7N2OmlXDZ-59" target="zSoFTdJwqtHDQYcGsr4z-5" edge="1">
          <mxGeometry width="50" height="50" relative="1" as="geometry">
            <mxPoint x="-410" y="1060" as="sourcePoint" />
            <mxPoint x="-150" y="1060" as="targetPoint" />
            <Array as="points">
              <mxPoint x="-440" y="960" />
              <mxPoint x="-440" y="1330" />
              <mxPoint x="-547" y="1330" />
            </Array>
          </mxGeometry>
        </mxCell>
        <mxCell id="9fjLhJYOVXO7N2OmlXDZ-65" value="内网访问管理系统" style="edgeLabel;html=1;align=center;verticalAlign=middle;resizable=0;points=[];" parent="9fjLhJYOVXO7N2OmlXDZ-64" vertex="1" connectable="0">
          <mxGeometry x="-0.1036" y="3" relative="1" as="geometry">
            <mxPoint x="4" y="3" as="offset" />
          </mxGeometry>
        </mxCell>
        <mxCell id="9fjLhJYOVXO7N2OmlXDZ-66" value="esxi03" style="rounded=1;whiteSpace=wrap;html=1;" parent="1" vertex="1">
          <mxGeometry x="-760" y="869" width="150" height="80" as="geometry" />
        </mxCell>
        <mxCell id="9fjLhJYOVXO7N2OmlXDZ-67" value="esxi02" style="rounded=1;whiteSpace=wrap;html=1;" parent="1" vertex="1">
          <mxGeometry x="-1020" y="869" width="160" height="80" as="geometry" />
        </mxCell>
        <mxCell id="9fjLhJYOVXO7N2OmlXDZ-68" value="esxi01" style="rounded=1;whiteSpace=wrap;html=1;" parent="1" vertex="1">
          <mxGeometry x="-1270" y="871.5" width="140" height="75" as="geometry" />
        </mxCell>
        <mxCell id="9fjLhJYOVXO7N2OmlXDZ-76" value="" style="edgeStyle=orthogonalEdgeStyle;rounded=0;orthogonalLoop=1;jettySize=auto;html=1;" parent="1" source="9fjLhJYOVXO7N2OmlXDZ-70" target="9fjLhJYOVXO7N2OmlXDZ-75" edge="1">
          <mxGeometry relative="1" as="geometry">
            <Array as="points">
              <mxPoint x="-945" y="700" />
              <mxPoint x="-945" y="700" />
            </Array>
          </mxGeometry>
        </mxCell>
        <mxCell id="9fjLhJYOVXO7N2OmlXDZ-70" value="公司内网esxi集群" style="rounded=0;whiteSpace=wrap;html=1;fillColor=none;labelPosition=center;verticalLabelPosition=bottom;align=center;verticalAlign=top;" parent="1" vertex="1">
          <mxGeometry x="-1320" y="739" width="750" height="330" as="geometry" />
        </mxCell>
        <mxCell id="9fjLhJYOVXO7N2OmlXDZ-110" value="" style="edgeStyle=orthogonalEdgeStyle;rounded=0;orthogonalLoop=1;jettySize=auto;html=1;" parent="1" source="9fjLhJYOVXO7N2OmlXDZ-75" target="9fjLhJYOVXO7N2OmlXDZ-104" edge="1">
          <mxGeometry relative="1" as="geometry" />
        </mxCell>
        <mxCell id="9fjLhJYOVXO7N2OmlXDZ-75" value="1、公司内部基础平台：jira，wiki，ldap，gitlab, svn , jenkins, yapi ,&amp;nbsp;sonarqube，openvas&lt;br&gt;2、基础数据部：算法机，智慧统计开发环境，管理系统开发环境，pyhon流处理机，爬虫机&lt;br&gt;3、软件研发部：数图/经济大脑开发/测试环境，产服开发测试环境&lt;br&gt;4、数据技术部：读库，sqlplad" style="whiteSpace=wrap;html=1;rounded=0;verticalAlign=top;fillColor=none;" parent="1" vertex="1">
          <mxGeometry x="-1207.5" y="609" width="525" height="80" as="geometry" />
        </mxCell>
        <mxCell id="9fjLhJYOVXO7N2OmlXDZ-81" value="www.tuxinzhi.com&lt;div&gt;sjct.tuxinzhi.com&lt;/div&gt;" style="rounded=0;whiteSpace=wrap;html=1;fillColor=none;" parent="1" vertex="1">
          <mxGeometry x="420" y="180" width="240" height="110" as="geometry" />
        </mxCell>
        <mxCell id="9fjLhJYOVXO7N2OmlXDZ-82" value="产服正式环境&lt;br&gt;47.106.184.15" style="rounded=1;whiteSpace=wrap;html=1;fillColor=none;" parent="1" vertex="1">
          <mxGeometry x="-270" y="470" width="120" height="60" as="geometry" />
        </mxCell>
        <mxCell id="zf6hU6jJ6Po62-SAqwlD-2" value="" style="edgeStyle=orthogonalEdgeStyle;rounded=0;orthogonalLoop=1;jettySize=auto;html=1;" parent="1" source="9fjLhJYOVXO7N2OmlXDZ-83" target="zf6hU6jJ6Po62-SAqwlD-1" edge="1">
          <mxGeometry relative="1" as="geometry" />
        </mxCell>
        <mxCell id="9fjLhJYOVXO7N2OmlXDZ-83" value="产服测试环境环境&lt;br&gt;10.220.30.100" style="rounded=1;whiteSpace=wrap;html=1;fillColor=none;" parent="1" vertex="1">
          <mxGeometry x="-120" y="520" width="120" height="60" as="geometry" />
        </mxCell>
        <mxCell id="zf6hU6jJ6Po62-SAqwlD-4" value="" style="edgeStyle=orthogonalEdgeStyle;rounded=0;orthogonalLoop=1;jettySize=auto;html=1;" parent="1" source="9fjLhJYOVXO7N2OmlXDZ-84" target="zf6hU6jJ6Po62-SAqwlD-1" edge="1">
          <mxGeometry relative="1" as="geometry" />
        </mxCell>
        <mxCell id="zf6hU6jJ6Po62-SAqwlD-5" value="互联网访问" style="edgeLabel;html=1;align=center;verticalAlign=middle;resizable=0;points=[];" parent="zf6hU6jJ6Po62-SAqwlD-4" vertex="1" connectable="0">
          <mxGeometry x="-0.3569" y="-4" relative="1" as="geometry">
            <mxPoint as="offset" />
          </mxGeometry>
        </mxCell>
        <mxCell id="9fjLhJYOVXO7N2OmlXDZ-84" value="" style="fontColor=#0066CC;verticalAlign=top;verticalLabelPosition=bottom;labelPosition=center;align=center;html=1;outlineConnect=0;fillColor=#CCCCCC;strokeColor=#6881B3;gradientColor=none;gradientDirection=north;strokeWidth=2;shape=mxgraph.networks.pc;" parent="1" vertex="1">
          <mxGeometry x="-260" y="170" width="100" height="70" as="geometry" />
        </mxCell>
        <mxCell id="9fjLhJYOVXO7N2OmlXDZ-86" value="" style="endArrow=classic;html=1;" parent="1" source="9fjLhJYOVXO7N2OmlXDZ-84" target="9fjLhJYOVXO7N2OmlXDZ-82" edge="1">
          <mxGeometry width="50" height="50" relative="1" as="geometry">
            <mxPoint x="-60" y="530" as="sourcePoint" />
            <mxPoint x="-10" y="480" as="targetPoint" />
          </mxGeometry>
        </mxCell>
        <mxCell id="9fjLhJYOVXO7N2OmlXDZ-87" value="互联网访问" style="edgeLabel;html=1;align=center;verticalAlign=bottom;resizable=0;points=[];labelPosition=center;verticalLabelPosition=top;" parent="9fjLhJYOVXO7N2OmlXDZ-86" vertex="1" connectable="0">
          <mxGeometry x="-0.3823" y="3" relative="1" as="geometry">
            <mxPoint as="offset" />
          </mxGeometry>
        </mxCell>
        <mxCell id="9fjLhJYOVXO7N2OmlXDZ-90" value="" style="shape=flexArrow;endArrow=classic;startArrow=classic;html=1;exitX=1;exitY=0.5;exitDx=0;exitDy=0;" parent="1" source="9fjLhJYOVXO7N2OmlXDZ-59" edge="1">
          <mxGeometry width="100" height="100" relative="1" as="geometry">
            <mxPoint x="-90" y="860" as="sourcePoint" />
            <mxPoint x="-320" y="750" as="targetPoint" />
            <Array as="points">
              <mxPoint x="-390" y="750" />
            </Array>
          </mxGeometry>
        </mxCell>
        <mxCell id="9fjLhJYOVXO7N2OmlXDZ-91" value="阿里云智能网关&lt;br&gt;10Mbps" style="edgeLabel;html=1;align=center;verticalAlign=middle;resizable=0;points=[];" parent="9fjLhJYOVXO7N2OmlXDZ-90" vertex="1" connectable="0">
          <mxGeometry x="-0.0698" y="-2" relative="1" as="geometry">
            <mxPoint as="offset" />
          </mxGeometry>
        </mxCell>
        <mxCell id="9fjLhJYOVXO7N2OmlXDZ-112" value="" style="edgeStyle=orthogonalEdgeStyle;rounded=0;orthogonalLoop=1;jettySize=auto;html=1;" parent="1" source="9fjLhJYOVXO7N2OmlXDZ-94" target="9fjLhJYOVXO7N2OmlXDZ-109" edge="1">
          <mxGeometry relative="1" as="geometry" />
        </mxCell>
        <mxCell id="9fjLhJYOVXO7N2OmlXDZ-94" value="" style="fontColor=#0066CC;verticalAlign=top;verticalLabelPosition=bottom;labelPosition=center;align=center;html=1;outlineConnect=0;fillColor=#CCCCCC;strokeColor=#6881B3;gradientColor=none;gradientDirection=north;strokeWidth=2;shape=mxgraph.networks.firewall;" parent="1" vertex="1">
          <mxGeometry x="-995" y="270" width="100" height="100" as="geometry" />
        </mxCell>
        <mxCell id="9fjLhJYOVXO7N2OmlXDZ-98" value="两条ASDL宽带拨号&lt;br&gt;1000Mbps" style="rounded=1;whiteSpace=wrap;html=1;fillColor=none;" parent="1" vertex="1">
          <mxGeometry x="-1090" y="190" width="120" height="60" as="geometry" />
        </mxCell>
        <mxCell id="9fjLhJYOVXO7N2OmlXDZ-101" value="" style="endArrow=classic;html=1;" parent="1" edge="1">
          <mxGeometry width="50" height="50" relative="1" as="geometry">
            <mxPoint x="-690" y="220" as="sourcePoint" />
            <mxPoint x="-890" y="300" as="targetPoint" />
          </mxGeometry>
        </mxCell>
        <mxCell id="9fjLhJYOVXO7N2OmlXDZ-103" value="华为sslvpn" style="edgeLabel;html=1;align=center;verticalAlign=middle;resizable=0;points=[];" parent="9fjLhJYOVXO7N2OmlXDZ-101" vertex="1" connectable="0">
          <mxGeometry x="-0.1397" y="3" relative="1" as="geometry">
            <mxPoint as="offset" />
          </mxGeometry>
        </mxCell>
        <mxCell id="9fjLhJYOVXO7N2OmlXDZ-102" value="远程vpn办公" style="rounded=1;whiteSpace=wrap;html=1;fillColor=none;" parent="1" vertex="1">
          <mxGeometry x="-745" y="160" width="120" height="60" as="geometry" />
        </mxCell>
        <mxCell id="9fjLhJYOVXO7N2OmlXDZ-111" value="" style="edgeStyle=orthogonalEdgeStyle;rounded=0;orthogonalLoop=1;jettySize=auto;html=1;" parent="1" source="9fjLhJYOVXO7N2OmlXDZ-104" target="9fjLhJYOVXO7N2OmlXDZ-94" edge="1">
          <mxGeometry relative="1" as="geometry" />
        </mxCell>
        <mxCell id="9fjLhJYOVXO7N2OmlXDZ-104" value="内部局域网办公网" style="rounded=1;whiteSpace=wrap;html=1;fillColor=none;" parent="1" vertex="1">
          <mxGeometry x="-1255" y="440" width="620" height="100" as="geometry" />
        </mxCell>
        <mxCell id="9fjLhJYOVXO7N2OmlXDZ-109" value="互联网" style="html=1;outlineConnect=0;fillColor=#CCCCCC;strokeColor=#6881B3;gradientColor=none;gradientDirection=north;strokeWidth=2;shape=mxgraph.networks.cloud;fontColor=#ffffff;" parent="1" vertex="1">
          <mxGeometry x="-990" y="110" width="90" height="50" as="geometry" />
        </mxCell>
        <mxCell id="zf6hU6jJ6Po62-SAqwlD-1" value="ali-slb" style="rounded=1;whiteSpace=wrap;html=1;" parent="1" vertex="1">
          <mxGeometry x="-120" y="300" width="120" height="60" as="geometry" />
        </mxCell>
        <mxCell id="zf6hU6jJ6Po62-SAqwlD-7" value="" style="edgeStyle=orthogonalEdgeStyle;rounded=0;orthogonalLoop=1;jettySize=auto;html=1;" parent="1" source="zf6hU6jJ6Po62-SAqwlD-6" target="9fjLhJYOVXO7N2OmlXDZ-36" edge="1">
          <mxGeometry relative="1" as="geometry" />
        </mxCell>
        <mxCell id="zf6hU6jJ6Po62-SAqwlD-6" value="elasticsearch&lt;br&gt;10.220.30.80" style="rounded=1;whiteSpace=wrap;html=1;" parent="1" vertex="1">
          <mxGeometry x="446" y="540" width="120" height="60" as="geometry" />
        </mxCell>
        <mxCell id="zf6hU6jJ6Po62-SAqwlD-18" value="业务库&lt;br&gt;10.220.20.80" style="strokeWidth=2;html=1;shape=mxgraph.flowchart.database;whiteSpace=wrap;" parent="1" vertex="1">
          <mxGeometry x="426" y="650" width="110" height="60" as="geometry" />
        </mxCell>
        <mxCell id="zf6hU6jJ6Po62-SAqwlD-21" value="" style="endArrow=classic;html=1;exitX=0.5;exitY=0;exitDx=0;exitDy=0;exitPerimeter=0;entryX=0.75;entryY=1;entryDx=0;entryDy=0;" parent="1" source="zf6hU6jJ6Po62-SAqwlD-18" target="9fjLhJYOVXO7N2OmlXDZ-36" edge="1">
          <mxGeometry width="50" height="50" relative="1" as="geometry">
            <mxPoint x="266" y="570" as="sourcePoint" />
            <mxPoint x="316" y="520" as="targetPoint" />
          </mxGeometry>
        </mxCell>
        <mxCell id="cwwTzG9_eAxzKP_ijVsS-3" value="" style="shape=flexArrow;endArrow=classic;startArrow=classic;html=1;entryX=0.172;entryY=0;entryDx=0;entryDy=0;entryPerimeter=0;" parent="1" target="cwwTzG9_eAxzKP_ijVsS-1" edge="1">
          <mxGeometry width="100" height="100" relative="1" as="geometry">
            <mxPoint x="-710" y="1170" as="sourcePoint" />
            <mxPoint x="-580" y="1240" as="targetPoint" />
            <Array as="points">
              <mxPoint x="-710" y="1260" />
            </Array>
          </mxGeometry>
        </mxCell>
        <mxCell id="cwwTzG9_eAxzKP_ijVsS-4" value="机房专线 500 Mbps" style="edgeLabel;html=1;align=center;verticalAlign=middle;resizable=0;points=[];" parent="cwwTzG9_eAxzKP_ijVsS-3" vertex="1" connectable="0">
          <mxGeometry x="-0.0698" y="-2" relative="1" as="geometry">
            <mxPoint as="offset" />
          </mxGeometry>
        </mxCell>
        <mxCell id="cwwTzG9_eAxzKP_ijVsS-5" value="" style="shape=flexArrow;endArrow=classic;startArrow=classic;html=1;exitX=0.201;exitY=1.002;exitDx=0;exitDy=0;exitPerimeter=0;startSize=6;endSize=6;startWidth=20;width=10;entryX=0.768;entryY=0;entryDx=0;entryDy=0;entryPerimeter=0;" parent="1" source="9fjLhJYOVXO7N2OmlXDZ-1" target="cwwTzG9_eAxzKP_ijVsS-1" edge="1">
          <mxGeometry width="100" height="100" relative="1" as="geometry">
            <mxPoint x="-0.35333333333255723" y="1405.87" as="sourcePoint" />
            <mxPoint x="-120" y="1430" as="targetPoint" />
            <Array as="points">
              <mxPoint x="-120" y="1410" />
            </Array>
          </mxGeometry>
        </mxCell>
        <mxCell id="cwwTzG9_eAxzKP_ijVsS-6" value="阿里云智能网关&lt;br&gt;10Mbps" style="edgeLabel;html=1;align=center;verticalAlign=middle;resizable=0;points=[];" parent="cwwTzG9_eAxzKP_ijVsS-5" vertex="1" connectable="0">
          <mxGeometry x="-0.0698" y="-2" relative="1" as="geometry">
            <mxPoint as="offset" />
          </mxGeometry>
        </mxCell>
        <mxCell id="zSoFTdJwqtHDQYcGsr4z-12" style="edgeStyle=orthogonalEdgeStyle;rounded=0;orthogonalLoop=1;jettySize=auto;html=1;entryX=0.5;entryY=0;entryDx=0;entryDy=0;startArrow=classic;startFill=1;" parent="1" source="zSoFTdJwqtHDQYcGsr4z-5" target="zSoFTdJwqtHDQYcGsr4z-6" edge="1">
          <mxGeometry relative="1" as="geometry" />
        </mxCell>
        <mxCell id="zSoFTdJwqtHDQYcGsr4z-5" value="" style="rounded=1;whiteSpace=wrap;html=1;dashed=1;" parent="1" vertex="1">
          <mxGeometry x="-550" y="1511.19" width="280" height="185" as="geometry" />
        </mxCell>
        <mxCell id="zSoFTdJwqtHDQYcGsr4z-1" value="数据中台管理节点&lt;br&gt;（ip待定）" style="rounded=1;whiteSpace=wrap;html=1;" parent="1" vertex="1">
          <mxGeometry x="-530" y="1535.19" width="110" height="60" as="geometry" />
        </mxCell>
        <mxCell id="zSoFTdJwqtHDQYcGsr4z-2" value="数据中台管理节点" style="rounded=1;whiteSpace=wrap;html=1;" parent="1" vertex="1">
          <mxGeometry x="-530" y="1615.19" width="110" height="60" as="geometry" />
        </mxCell>
        <mxCell id="zSoFTdJwqtHDQYcGsr4z-3" value="数据中台管理节点" style="rounded=1;whiteSpace=wrap;html=1;" parent="1" vertex="1">
          <mxGeometry x="-400" y="1535.19" width="110" height="60" as="geometry" />
        </mxCell>
        <mxCell id="zSoFTdJwqtHDQYcGsr4z-4" value="数据中台管理节点" style="rounded=1;whiteSpace=wrap;html=1;" parent="1" vertex="1">
          <mxGeometry x="-400" y="1615.19" width="110" height="60" as="geometry" />
        </mxCell>
        <mxCell id="zSoFTdJwqtHDQYcGsr4z-6" value="" style="rounded=1;whiteSpace=wrap;html=1;dashed=1;" parent="1" vertex="1">
          <mxGeometry x="-550" y="1729.19" width="417" height="178" as="geometry" />
        </mxCell>
        <mxCell id="zSoFTdJwqtHDQYcGsr4z-7" value="数据中台存算节点&lt;div&gt;（ip待定）&lt;/div&gt;" style="rounded=1;whiteSpace=wrap;html=1;" parent="1" vertex="1">
          <mxGeometry x="-530" y="1752.19" width="110" height="60" as="geometry" />
        </mxCell>
        <mxCell id="zSoFTdJwqtHDQYcGsr4z-8" value="数据中台存算节点" style="rounded=1;whiteSpace=wrap;html=1;" parent="1" vertex="1">
          <mxGeometry x="-396.5" y="1752.19" width="110" height="60" as="geometry" />
        </mxCell>
        <mxCell id="zSoFTdJwqtHDQYcGsr4z-9" value="数据中台存算节点" style="rounded=1;whiteSpace=wrap;html=1;" parent="1" vertex="1">
          <mxGeometry x="-263" y="1752.19" width="110" height="60" as="geometry" />
        </mxCell>
        <mxCell id="zSoFTdJwqtHDQYcGsr4z-10" value="数据中台存算节点" style="rounded=1;whiteSpace=wrap;html=1;" parent="1" vertex="1">
          <mxGeometry x="-465" y="1827.19" width="110" height="60" as="geometry" />
        </mxCell>
        <mxCell id="zSoFTdJwqtHDQYcGsr4z-11" value="数据中台存算节点" style="rounded=1;whiteSpace=wrap;html=1;" parent="1" vertex="1">
          <mxGeometry x="-333" y="1827.19" width="110" height="60" as="geometry" />
        </mxCell>
        <mxCell id="Am_CI4u68Gydb-rhWv6g-1" style="edgeStyle=orthogonalEdgeStyle;rounded=0;orthogonalLoop=1;jettySize=auto;html=1;exitX=1;exitY=0.25;exitDx=0;exitDy=0;entryX=0.001;entryY=0.224;entryDx=0;entryDy=0;entryPerimeter=0;" edge="1" parent="1" source="9fjLhJYOVXO7N2OmlXDZ-59" target="9fjLhJYOVXO7N2OmlXDZ-1">
          <mxGeometry relative="1" as="geometry" />
        </mxCell>
        <mxCell id="Am_CI4u68Gydb-rhWv6g-2" value="内网访问及数据同步" style="edgeLabel;html=1;align=center;verticalAlign=middle;resizable=0;points=[];" vertex="1" connectable="0" parent="Am_CI4u68Gydb-rhWv6g-1">
          <mxGeometry x="-0.1282" y="-1" relative="1" as="geometry">
            <mxPoint x="1" as="offset" />
          </mxGeometry>
        </mxCell>
      </root>
    </mxGraphModel>
  </diagram>
</mxfile>
